<svg xmlns="http://www.w3.org/2000/svg" xmlns:xlink="http://www.w3.org/1999/xlink" viewBox="0 0 148.95 34.24"><defs><style>.cls-1{fill:url(#linear-gradient);}.cls-2{fill:url(#linear-gradient-2);}.cls-3{fill:url(#linear-gradient-3);}.cls-4{fill:url(#linear-gradient-4);}.cls-5,.cls-6{fill:none;}.cls-5{clip-rule:evenodd;}.cls-7{clip-path:url(#clip-path);}.cls-8{fill:url(#linear-gradient-5);}.cls-9{clip-path:url(#clip-path-2);}.cls-10{fill:url(#linear-gradient-6);}.cls-11{clip-path:url(#clip-path-3);}.cls-12{fill:url(#linear-gradient-7);}.cls-13{clip-path:url(#clip-path-4);}.cls-14{fill:url(#linear-gradient-8);}.cls-15{clip-path:url(#clip-path-5);}.cls-16{mask:url(#mask);}.cls-17{fill:url(#linear-gradient-9);}.cls-18{mask:url(#mask-2);}.cls-19{fill:#e62129;}.cls-19,.cls-27,.cls-29{fill-rule:evenodd;}.cls-20{clip-path:url(#clip-path-6);}.cls-21{fill:url(#linear-gradient-10);}.cls-22{clip-path:url(#clip-path-7);}.cls-23{fill:url(#linear-gradient-11);}.cls-24{clip-path:url(#clip-path-8);}.cls-25{fill:url(#linear-gradient-12);}.cls-26{mask:url(#mask-3);}.cls-27{fill:#92d3ed;}.cls-28{mask:url(#mask-4);}.cls-29{fill:#0e683c;}.cls-30{fill:#181331;}</style><linearGradient id="linear-gradient" x1="-55.22" y1="673.52" x2="-55.22" y2="677.85" gradientTransform="translate(81.34 -662.67)" gradientUnits="userSpaceOnUse"><stop offset="0" stop-color="#fff"/><stop offset="1"/></linearGradient><linearGradient id="linear-gradient-2" x1="-46.99" y1="665.77" x2="-58.15" y2="674.5" gradientTransform="translate(77.56 -649.55)" xlink:href="#linear-gradient"/><linearGradient id="linear-gradient-3" x1="-52.96" y1="657.65" x2="-44.46" y2="655.63" gradientTransform="translate(49.36 -636.31)" xlink:href="#linear-gradient"/><linearGradient id="linear-gradient-4" x1="-44.97" y1="670.43" x2="-53.78" y2="658.65" gradientTransform="translate(62.73 -636.22)" xlink:href="#linear-gradient"/><clipPath id="clip-path"><path class="cls-5" d="M9.43,25.2h9.08a3.43,3.43,0,0,0,.56-.05A12.4,12.4,0,0,0,30.63,16.2v5.92A12.16,12.16,0,0,1,18.51,34.24H18c-4.38-1.48-7.48-4.45-8.56-9"/></clipPath><linearGradient id="linear-gradient-5" x1="20.1" y1="16.12" x2="19.98" y2="30.95" gradientUnits="userSpaceOnUse"><stop offset="0" stop-color="#087b46"/><stop offset="1" stop-color="#acce22"/></linearGradient><clipPath id="clip-path-2"><path class="cls-5" d="M21.63,22.12V0h.79a8.23,8.23,0,0,1,8.21,8.21v8a12.4,12.4,0,0,1-11.56,9,3.07,3.07,0,0,0,2.56-3"/></clipPath><linearGradient id="linear-gradient-6" x1="24.85" y1="22.05" x2="24.85" y2="0.75" gradientUnits="userSpaceOnUse"><stop offset="0" stop-color="#e94f25"/><stop offset="1" stop-color="#fdd100"/></linearGradient><clipPath id="clip-path-3"><path class="cls-5" d="M12.12,25.2h6.39a3.43,3.43,0,0,0,.56-.05A12.38,12.38,0,0,0,30.6,16.27c0,.28,0,.57,0,.85,0,7.82-6,14.42-14.29,16.46A11.92,11.92,0,0,1,9.43,25.2h0A17.88,17.88,0,0,1,9,22.67a3.11,3.11,0,0,0,3.08,2.53"/></clipPath><linearGradient id="linear-gradient-7" x1="9.58" y1="24.93" x2="28.5" y2="24.93" xlink:href="#linear-gradient-5"/><clipPath id="clip-path-4"><path class="cls-5" d="M21.63,22.12V2.75c5.16,2.91,8.65,7.85,9,13.52a12.38,12.38,0,0,1-11.53,8.88,3.07,3.07,0,0,0,2.56-3"/></clipPath><linearGradient id="linear-gradient-8" x1="24.84" y1="22.38" x2="24.84" y2="2.78" gradientUnits="userSpaceOnUse"><stop offset="0" stop-color="#e94f25"/><stop offset="1" stop-color="#ffe100"/></linearGradient><clipPath id="clip-path-5"><path class="cls-6" d="M21.63,2.75a21.3,21.3,0,0,1,6.22,5.94,17.52,17.52,0,0,1,2.75,7.58,13.79,13.79,0,0,0-2.44-7.78,16.5,16.5,0,0,0-6.53-5.74"/></clipPath><mask id="mask" x="21.63" y="2.75" width="9" height="13.52" maskUnits="userSpaceOnUse"><rect class="cls-1" x="21.63" y="2.75" width="8.97" height="13.52"/></mask><linearGradient id="linear-gradient-9" x1="24.03" y1="5.16" x2="28.54" y2="14.52" gradientUnits="userSpaceOnUse"><stop offset="0" stop-color="#ffe900"/><stop offset="1" stop-color="#ef831a"/></linearGradient><mask id="mask-2" x="19.07" y="16.26" width="11.53" height="8.89" maskUnits="userSpaceOnUse"><rect class="cls-2" x="19.07" y="16.26" width="11.53" height="8.89"/></mask><clipPath id="clip-path-6"><path class="cls-6" d="M16.45,33.64a19.62,19.62,0,0,0,8-3.89,18.6,18.6,0,0,0,3.15-3.25c2.44-3.27,3-6.24,3-10.3-.24,3.79-1,7-3.29,10.07a18.26,18.26,0,0,1-3.09,3.19,21.11,21.11,0,0,1-8.2,4l.4.19m-4.8.59Z"/></clipPath><linearGradient id="linear-gradient-10" x1="29.5" y1="15.26" x2="15.17" y2="32.33" gradientUnits="userSpaceOnUse"><stop offset="0" stop-color="#acce22"/><stop offset="0.56" stop-color="#b8d33c"/><stop offset="1" stop-color="#acce22"/></linearGradient><clipPath id="clip-path-7"><path class="cls-5" d="M9,22.67a12.4,12.4,0,0,0,9,11.57H12.12A12.15,12.15,0,0,1,0,22.12V8.21A8.23,8.23,0,0,1,8.21,0H9V22.12a3.24,3.24,0,0,0,0,.55"/></clipPath><linearGradient id="linear-gradient-11" x1="9" y1="3.8" x2="9" y2="34.23" gradientUnits="userSpaceOnUse"><stop offset="0" stop-color="#006dae"/><stop offset="1" stop-color="#42bee8"/></linearGradient><clipPath id="clip-path-8"><path class="cls-5" d="M9,22.67a12.38,12.38,0,0,0,8.71,11.49C7.78,33.3,0,26,0,17.12,0,11.1,3.58,5.8,9,2.75V22.12a3.24,3.24,0,0,0,0,.55"/></clipPath><linearGradient id="linear-gradient-12" x1="8.87" y1="2.75" x2="8.87" y2="27.17" gradientUnits="userSpaceOnUse"><stop offset="0" stop-color="#006dae"/><stop offset="0.54" stop-color="#1e99d3"/><stop offset="1" stop-color="#3fbff0"/></linearGradient><mask id="mask-3" x="0" y="2.75" width="17.21" height="31.35" maskUnits="userSpaceOnUse"><rect class="cls-3" y="2.75" width="17.21" height="31.35"/></mask><mask id="mask-4" x="9.04" y="22.67" width="8.78" height="11.49" maskUnits="userSpaceOnUse"><rect class="cls-4" x="9.04" y="22.67" width="8.78" height="11.49"/></mask></defs><g id="Layer_2" data-name="Layer 2"><g id="Layer_1-2" data-name="Layer 1"><g class="cls-7"><rect class="cls-8" x="9.43" y="16.2" width="21.2" height="18.04"/></g><g class="cls-9"><rect class="cls-10" x="19.07" width="11.55" height="25.15"/></g><g class="cls-11"><rect class="cls-12" x="9.04" y="16.27" width="21.58" height="17.31"/></g><g class="cls-13"><rect class="cls-14" x="19.07" y="2.75" width="11.53" height="22.4"/></g><g class="cls-15"><g class="cls-16"><rect class="cls-17" x="21.63" y="2.75" width="9" height="13.52"/></g></g><g class="cls-18"><path class="cls-19" d="M21.63,22.12a10.38,10.38,0,0,0,9-5.86h0a12.38,12.38,0,0,1-11.53,8.88,3.07,3.07,0,0,0,2.56-3"/></g><g class="cls-20"><rect class="cls-21" x="11.65" y="16.2" width="18.98" height="18.03"/></g><g class="cls-22"><rect class="cls-23" width="17.99" height="34.24"/></g><g class="cls-24"><rect class="cls-25" y="2.75" width="17.75" height="31.41"/></g><g class="cls-26"><path class="cls-27" d="M17.21,34.1C7.51,33,0,25.84,0,17.12,0,11.1,3.58,5.8,9,2.75a24.11,24.11,0,0,0-6.31,6.4,15,15,0,0,0-2.32,8,15.51,15.51,0,0,0,5,11.22A23.77,23.77,0,0,0,17.21,34.1"/></g><g class="cls-28"><path class="cls-29" d="M12.12,25.2a9.93,9.93,0,0,0,5.7,9h-.07A12.38,12.38,0,0,1,9,22.67a3.11,3.11,0,0,0,3.08,2.53"/></g><path class="cls-30" d="M51.73,19.15V11h3.94V25.19H51.89V22.62h-.15a4.17,4.17,0,0,1-1.59,2,4.65,4.65,0,0,1-2.71.76,4.78,4.78,0,0,1-2.5-.65,4.44,4.44,0,0,1-1.69-1.84A6.38,6.38,0,0,1,42.64,20V11h3.93v8.33a2.83,2.83,0,0,0,.68,2,2.26,2.26,0,0,0,1.78.73,2.9,2.9,0,0,0,1.33-.32,2.61,2.61,0,0,0,1-1A2.94,2.94,0,0,0,51.73,19.15Z"/><path class="cls-30" d="M61.44,6.28V25.19H57.51V6.28Z"/><path class="cls-30" d="M70.82,11v3H62.28V11Zm-6.6-3.4h3.93V20.84a1.76,1.76,0,0,0,.17.84.91.91,0,0,0,.47.42,1.85,1.85,0,0,0,.69.12,3.53,3.53,0,0,0,.56,0l.42-.08L71.08,25c-.2.06-.47.13-.83.21a6.49,6.49,0,0,1-1.3.16A6,6,0,0,1,66.46,25a3.52,3.52,0,0,1-1.66-1.35,4.13,4.13,0,0,1-.58-2.31Z"/><path class="cls-30" d="M72.08,25.19V11h3.81v2.48H76a3.68,3.68,0,0,1,1.3-2,3.39,3.39,0,0,1,2.11-.68,4.74,4.74,0,0,1,.63,0,3.12,3.12,0,0,1,.6.1v3.49a4.22,4.22,0,0,0-.76-.15,7.7,7.7,0,0,0-.9-.07,3.11,3.11,0,0,0-1.54.38,2.77,2.77,0,0,0-1.08,1A3,3,0,0,0,76,17.17v8Z"/><path class="cls-30" d="M85.05,25.46A6,6,0,0,1,82.63,25,3.86,3.86,0,0,1,81,23.57a4.16,4.16,0,0,1-.62-2.34,4.08,4.08,0,0,1,.44-2A3.52,3.52,0,0,1,82,18a5.79,5.79,0,0,1,1.7-.73,11.71,11.71,0,0,1,2-.35c.83-.09,1.49-.17,2-.25a2.66,2.66,0,0,0,1.09-.35.76.76,0,0,0,.35-.68v-.05a1.73,1.73,0,0,0-.55-1.36A2.31,2.31,0,0,0,87,13.7a2.78,2.78,0,0,0-1.69.46,2.23,2.23,0,0,0-.83,1.17L80.84,15a5.06,5.06,0,0,1,1.09-2.24A5.26,5.26,0,0,1,84,11.34a8.11,8.11,0,0,1,3-.51,9.41,9.41,0,0,1,2.27.27,6.15,6.15,0,0,1,1.93.86,4.33,4.33,0,0,1,1.33,1.49A4.5,4.5,0,0,1,93,15.63v9.56H89.31v-2H89.2a3.81,3.81,0,0,1-.92,1.16,4.1,4.1,0,0,1-1.37.79A5.6,5.6,0,0,1,85.05,25.46Zm1.13-2.71a3.26,3.26,0,0,0,1.53-.35,2.66,2.66,0,0,0,1.05-.94,2.43,2.43,0,0,0,.37-1.34v-1.5a2.17,2.17,0,0,1-.5.22c-.21.06-.45.12-.71.17l-.8.14-.72.11a4.55,4.55,0,0,0-1.21.32,2,2,0,0,0-.8.6,1.45,1.45,0,0,0-.29.92,1.42,1.42,0,0,0,.59,1.23A2.5,2.5,0,0,0,86.18,22.75Z"/><path class="cls-30" d="M98.73,6.28V25.19H94.8V6.28Z"/><path class="cls-30" d="M104.61,25.46a6,6,0,0,1-2.42-.47,3.8,3.8,0,0,1-1.67-1.42,4.16,4.16,0,0,1-.62-2.34,4.08,4.08,0,0,1,.44-2,3.52,3.52,0,0,1,1.18-1.3,5.68,5.68,0,0,1,1.7-.73,11.71,11.71,0,0,1,2-.35c.83-.09,1.49-.17,2-.25a2.67,2.67,0,0,0,1.1-.35.76.76,0,0,0,.35-.68v-.05a1.73,1.73,0,0,0-.55-1.36,2.31,2.31,0,0,0-1.56-.48,2.78,2.78,0,0,0-1.69.46,2.18,2.18,0,0,0-.83,1.17L100.4,15a5.06,5.06,0,0,1,1.09-2.24,5.26,5.26,0,0,1,2.1-1.46,8.11,8.11,0,0,1,3-.51,9.41,9.41,0,0,1,2.27.27,6,6,0,0,1,1.92.86,4.26,4.26,0,0,1,1.34,1.49,4.5,4.5,0,0,1,.49,2.18v9.56h-3.73v-2h-.11a4,4,0,0,1-.92,1.16,4.1,4.1,0,0,1-1.37.79A5.6,5.6,0,0,1,104.61,25.46Zm1.13-2.71a3.26,3.26,0,0,0,1.53-.35,2.63,2.63,0,0,0,1-.94,2.36,2.36,0,0,0,.38-1.34v-1.5a2.17,2.17,0,0,1-.5.22c-.21.06-.45.12-.72.17l-.79.14-.72.11a4.45,4.45,0,0,0-1.21.32,2,2,0,0,0-.8.6,1.45,1.45,0,0,0-.29.92,1.42,1.42,0,0,0,.59,1.23A2.48,2.48,0,0,0,105.74,22.75Z"/><path class="cls-30" d="M118.29,17v8.2h-3.94V11h3.75v2.5h.17a4,4,0,0,1,1.58-2,4.81,4.81,0,0,1,2.68-.72,5,5,0,0,1,2.58.64,4.48,4.48,0,0,1,1.71,1.84,6.31,6.31,0,0,1,.61,2.85v9h-3.94V16.87a2.85,2.85,0,0,0-.66-2A2.4,2.4,0,0,0,121,14.1a2.73,2.73,0,0,0-1.39.34,2.33,2.33,0,0,0-1,1A3.42,3.42,0,0,0,118.29,17Z"/><path class="cls-30" d="M134.45,25.42a5.3,5.3,0,0,1-2.93-.83,5.64,5.64,0,0,1-2.06-2.47,9.35,9.35,0,0,1-.77-4,9.35,9.35,0,0,1,.79-4.06,5.65,5.65,0,0,1,2.09-2.43,5.42,5.42,0,0,1,2.87-.8,4.41,4.41,0,0,1,2,.4,4,4,0,0,1,1.29,1,4.94,4.94,0,0,1,.75,1.16h.12V6.28h3.93V25.19h-3.88V22.92h-.17a4.59,4.59,0,0,1-.78,1.17,4.08,4.08,0,0,1-1.3,1A4.54,4.54,0,0,1,134.45,25.42Zm1.24-3.13a2.49,2.49,0,0,0,1.61-.52,3.31,3.31,0,0,0,1-1.46,6.18,6.18,0,0,0,.35-2.21,6.16,6.16,0,0,0-.35-2.2,3.16,3.16,0,0,0-1-1.44,2.63,2.63,0,0,0-1.62-.5,2.55,2.55,0,0,0-1.63.52,3.27,3.27,0,0,0-1,1.46,6.2,6.2,0,0,0-.34,2.16,6.37,6.37,0,0,0,.35,2.19,3.24,3.24,0,0,0,1,1.47A2.5,2.5,0,0,0,135.69,22.29Z"/><path class="cls-30" d="M146.74,25.43a2.22,2.22,0,0,1-2.22-2.21,2.11,2.11,0,0,1,.65-1.55,2.2,2.2,0,0,1,3.12,0,2.15,2.15,0,0,1,.35,2.66,2.27,2.27,0,0,1-.8.8A2.12,2.12,0,0,1,146.74,25.43Z"/></g></g></svg>