<svg xmlns="http://www.w3.org/2000/svg" viewBox="0 0 450 512"><defs><style>.cls-1{fill:#3b2c68;}.cls-2{fill:#4f3f82;}.cls-3{fill:#6ecd24;}.cls-4{fill:#66bd21;}.cls-5{fill:#787780;}</style></defs><g id="Layer_2" data-name="Layer 2"><g id="Capa_1" data-name="Capa 1"><path class="cls-1" d="M315,482H255a15,15,0,0,1,0-30h60a45.05,45.05,0,0,0,45-45V347a15,15,0,0,1,30,0v60A75.09,75.09,0,0,1,315,482Z"/><path class="cls-2" d="M450,225v60l-30,35.8V225c0-107.4-87.6-195-195-195S30,117.6,30,225V325.6L0,285V225C0,100.8,100.8,0,225,0S450,100.8,450,225Z"/><path class="cls-1" d="M450,225v60l-30,35.8V225c0-107.4-87.6-195-195-195V0C349.2,0,450,100.8,450,225Z"/><path class="cls-3" d="M75,392H45A45.05,45.05,0,0,1,0,347V285a45.05,45.05,0,0,1,45-45H75a15,15,0,0,1,15,15V377A15,15,0,0,1,75,392Z"/><path class="cls-4" d="M405,392H375a15,15,0,0,1-15-15V255a15,15,0,0,1,15-15h30a45.05,45.05,0,0,1,45,45v62A45.05,45.05,0,0,1,405,392Z"/><path class="cls-5" d="M225,422a45,45,0,1,0,45,45A44.94,44.94,0,0,0,225,422Z"/><path class="cls-2" d="M270,467a44.94,44.94,0,0,1-45,45V422A44.94,44.94,0,0,1,270,467Z"/><path class="cls-2" d="M105,422a45.05,45.05,0,0,1-45-45V255a45,45,0,0,1,90,0V377A45.05,45.05,0,0,1,105,422Z"/><path class="cls-1" d="M345,422a45.05,45.05,0,0,1-45-45V255a45,45,0,0,1,90,0V377A45.05,45.05,0,0,1,345,422Z"/></g></g></svg>