<svg xmlns="http://www.w3.org/2000/svg" xmlns:xlink="http://www.w3.org/1999/xlink" id="Layer_1" x="0px" y="0px"
    viewBox="0 0 24 24" style="enable-background:new 0 0 24 24;" xml:space="preserve">
    <style type="text/css">
        .st1 {
            fill: none;
            stroke: #09ABA5;
            stroke-width: 2;
            stroke-linecap: round;
            stroke-linejoin: round;
        }
    </style>
    <path class="st1"
        d="M18,3c-1.7,0-3,1.3-3,3v12c0,1.7,1.3,3,3,3s3-1.3,3-3s-1.3-3-3-3H6c-1.7,0-3,1.3-3,3s1.3,3,3,3s3-1.3,3-3V6  c0-1.7-1.3-3-3-3S3,4.3,3,6s1.3,3,3,3h12c1.7,0,3-1.3,3-3S19.7,3,18,3z">
    </path>
</svg>