<svg xmlns="http://www.w3.org/2000/svg" viewBox="0 0 514.1 514.1"><defs><style>.cls-1{fill:#fff;stroke:#fff;stroke-miterlimit:10;stroke-width:2px;}</style></defs><g id="Layer_2" data-name="Layer 2"><g id="Capa_1" data-name="Capa 1"><path class="cls-1" d="M502.3,491.7H11.7a10.65,10.65,0,1,0,0,21.3H502.4a10.65,10.65,0,1,0-.1-21.3Z"/><path class="cls-1" d="M97,363.7H33a10.71,10.71,0,0,0-10.7,10.7v128A10.71,10.71,0,0,0,33,513.1H97a10.71,10.71,0,0,0,10.7-10.7v-128A10.65,10.65,0,0,0,97,363.7Zm-10.7,128H43.7V385H86.4l-.1,106.7Z"/><path class="cls-1" d="M225,257H161a10.71,10.71,0,0,0-10.7,10.7V502.4A10.71,10.71,0,0,0,161,513.1h64a10.71,10.71,0,0,0,10.7-10.7V267.7A10.71,10.71,0,0,0,225,257ZM214.3,491.7H171.6V278.3h42.7V491.7Z"/><path class="cls-1" d="M353,299.7H289a10.71,10.71,0,0,0-10.7,10.7v192A10.71,10.71,0,0,0,289,513.1h64a10.71,10.71,0,0,0,10.7-10.7v-192A10.65,10.65,0,0,0,353,299.7Zm-10.7,192H299.6V321h42.7Z"/><path class="cls-1" d="M481,171.7H417a10.71,10.71,0,0,0-10.7,10.7v320A10.71,10.71,0,0,0,417,513.1h64a10.71,10.71,0,0,0,10.7-10.7v-320A10.65,10.65,0,0,0,481,171.7Zm-10.7,320H427.6V193h42.7Z"/><path class="cls-1" d="M65,193a42.7,42.7,0,1,0,42.7,42.7A42.74,42.74,0,0,0,65,193Zm0,64a21.3,21.3,0,1,1,21.3-21.3A21.32,21.32,0,0,1,65,257Z"/><path class="cls-1" d="M193,86.3A42.7,42.7,0,1,0,235.7,129,42.74,42.74,0,0,0,193,86.3Zm0,64A21.3,21.3,0,1,1,214.3,129,21.32,21.32,0,0,1,193,150.3Z"/><path class="cls-1" d="M321,129a42.7,42.7,0,1,0,42.7,42.7A42.74,42.74,0,0,0,321,129Zm0,64a21.3,21.3,0,1,1,21.3-21.3A21.32,21.32,0,0,1,321,193Z"/><path class="cls-1" d="M449,1a42.7,42.7,0,1,0,42.7,42.7A42.74,42.74,0,0,0,449,1Zm0,64a21.3,21.3,0,1,1,21.3-21.3A21.32,21.32,0,0,1,449,65Z"/><path class="cls-1" d="M433.9,58.7a10.62,10.62,0,0,0-15.1,0L336,141.5a10.68,10.68,0,0,0,15.1,15.1l82.8-82.8A10.62,10.62,0,0,0,433.9,58.7Z"/><path class="cls-1" d="M295.2,147l-68.5-19.5a10.67,10.67,0,1,0-5.9,20.5l68.5,19.5a10.12,10.12,0,0,0,2.9.4,10.8,10.8,0,0,0,10.3-7.7A10.64,10.64,0,0,0,295.2,147Z"/><path class="cls-1" d="M176.4,142.3a10.66,10.66,0,0,0-15-1.7L81,204.7a10.65,10.65,0,0,0,6.6,19,10.81,10.81,0,0,0,6.6-2.3l80.4-64.1A10.59,10.59,0,0,0,176.4,142.3Z"/></g></g></svg>