<svg xmlns="http://www.w3.org/2000/svg" viewBox="0 0 512 512"><defs><style>.cls-1{fill:#455a64;}.cls-2{fill:#ffc107;}.cls-3{fill:#2196f3;}.cls-4{fill:#4caf50;}</style></defs><g id="Layer_2" data-name="Layer 2"><g id="Capa_1" data-name="Capa 1"><path class="cls-1" d="M501.33,448H64V10.67a10.67,10.67,0,1,0-21.33,0V448h-32a10.67,10.67,0,1,0,0,21.33h32v32a10.67,10.67,0,1,0,21.33,0v-32H501.33a10.67,10.67,0,1,0,0-21.33Z"/><path class="cls-2" d="M117.33,192h64A10.67,10.67,0,0,1,192,202.67v192a10.67,10.67,0,0,1-10.67,10.66h-64a10.66,10.66,0,0,1-10.66-10.66v-192A10.67,10.67,0,0,1,117.33,192Z"/><rect class="cls-3" x="373.33" y="138.67" width="64" height="256"/><path class="cls-4" d="M245.33,21.33h64A10.67,10.67,0,0,1,320,32V394.67a10.67,10.67,0,0,1-10.67,10.66h-64a10.66,10.66,0,0,1-10.66-10.66V32A10.67,10.67,0,0,1,245.33,21.33Z"/></g></g></svg>