<svg xmlns="http://www.w3.org/2000/svg" viewBox="0 0 268.8 300.1"><defs><style>.cls-1{fill:#fff;}</style></defs><g id="bulb" data-name="Bulb"><g id="bulb-1" data-name="Bulb"><path class="cls-1" d="M61.2,26.2a7.07,7.07,0,0,0,10-10L57,2.1a7,7,0,0,0-10,0,7,7,0,0,0,0,10Z"/><path class="cls-1" d="M216.7,2.1,202.6,16.3a7.07,7.07,0,1,0,10,10l14.1-14.2a7,7,0,0,0,0-10A7,7,0,0,0,216.7,2.1Z"/><path class="cls-1" d="M61.2,171.8,47.1,185.9a7.07,7.07,0,1,0,10,10l14.1-14.1a7.07,7.07,0,0,0-10-10Z"/><path class="cls-1" d="M212.6,171.8a7.07,7.07,0,0,0-10,10l14.1,14.1a7.07,7.07,0,0,0,10-10Z"/><path class="cls-1" d="M21.3,95H7.1a7.1,7.1,0,0,0,0,14.2H21.2a7.13,7.13,0,0,0,7.1-7.1A7,7,0,0,0,21.3,95Z"/><path class="cls-1" d="M261.7,95H247.6a7.1,7.1,0,1,0,0,14.2h14.1a7.1,7.1,0,1,0,0-14.2Z"/><path class="cls-1" d="M177.9,179.4c7.2-3.9,16.1-8.8,22.7-15.4a92.92,92.92,0,0,0,27.5-64.9A89.65,89.65,0,0,0,201.8,34a92,92,0,0,0-130,0A94,94,0,0,0,44.3,98.9,89.65,89.65,0,0,0,70.6,164c6.5,6.5,13.9,11.5,21.3,15.9v77.8a42.4,42.4,0,1,0,84.8,0V180a6.66,6.66,0,0,0,1.2-.6ZM80.7,154A75.46,75.46,0,0,1,58.5,99.1,79.25,79.25,0,0,1,81.9,44a77.74,77.74,0,0,1,110,0,75.46,75.46,0,0,1,22.2,54.9A79.25,79.25,0,0,1,190.7,154c-5.1,5.1-13.1,9.5-19.5,13-1.8,1-3.5,1.9-5,2.8a7.05,7.05,0,0,0-3.5,6.1V194H106.1V175.9a6.93,6.93,0,0,0-3.5-6.1C95,165.3,87,160.3,80.7,154Zm30.8,54.1,51.2,25.6v9.1l-56.6-25.1v-9.5h5.4Zm31.6,0h19.5v9.8Zm-37,25,39.2,17.4H106.1Zm28.3,52.8A28.33,28.33,0,0,1,107,264.7h54.8A28.44,28.44,0,0,1,134.4,285.9Z"/><path class="cls-1" d="M101.9,134a49.49,49.49,0,0,1,0-70,7.07,7.07,0,0,0-10-10,63.49,63.49,0,0,0,0,90,7.07,7.07,0,0,0,10-10Z"/></g></g></svg>