<svg xmlns="http://www.w3.org/2000/svg" viewBox="0 0 471.2 514"><defs><style>.cls-1{fill:#fff;stroke:#fff;stroke-miterlimit:10;stroke-width:2px;}</style></defs><g id="copy" data-name="copy"><g id="copy_1" data-name="copy_1"><path class="cls-1" d="M416.9,513h-256a53.35,53.35,0,0,1-53.3-53.3v-320a53.35,53.35,0,0,1,53.3-53.3h256a53.35,53.35,0,0,1,53.3,53.3v320A53.28,53.28,0,0,1,416.9,513Zm-256-405.3a32.09,32.09,0,0,0-32,32v320a32.09,32.09,0,0,0,32,32h256a32.09,32.09,0,0,0,32-32v-320a32.09,32.09,0,0,0-32-32Z"/><path class="cls-1" d="M75.6,449H54.3A53.35,53.35,0,0,1,1,395.7V54.3A53.28,53.28,0,0,1,54.3,1h256a53.35,53.35,0,0,1,53.3,53.3,10.7,10.7,0,0,1-21.4,0,32.09,32.09,0,0,0-32-32H54.2a32.09,32.09,0,0,0-32,32V395.6a32.09,32.09,0,0,0,32,32H75.6a10.7,10.7,0,1,1,0,21.4Z"/><path class="cls-1" d="M374.3,363.7H203.6a10.7,10.7,0,0,1,0-21.4H374.3a10.7,10.7,0,0,1,0,21.4Z"/><path class="cls-1" d="M374.3,449H203.6a10.7,10.7,0,1,1,0-21.4H374.3a10.7,10.7,0,0,1,0,21.4Z"/><path class="cls-1" d="M374.3,278.3H203.6a10.65,10.65,0,1,1,0-21.3H374.3a10.65,10.65,0,1,1,0,21.3Z"/><path class="cls-1" d="M374.3,193H203.6a10.7,10.7,0,0,1,0-21.4H374.3a10.7,10.7,0,0,1,0,21.4Z"/></g></g></svg>