<svg xmlns="http://www.w3.org/2000/svg" viewBox="0 0 382.17 492.02"><defs><style>.cls-1{fill:#6c2bc1;}.cls-2{fill:#f1f2f2;}.cls-3{fill:#fff;}.cls-4{fill:#e6e7e8;}.cls-5{fill:#d1d3d4;}.cls-6{fill:#a54af4;}.cls-7{fill:#893add;}.cls-8{fill:#1c46c4;}.cls-9{fill:#b171f4;}.cls-10{fill:#d10028;}.cls-11{fill:#ffc91d;}.cls-12{fill:#ffa91a;}.cls-13{fill:#58595b;}.cls-14{fill:#414042;}.cls-15{fill:#f79219;}.cls-16{fill:#ef7816;}</style></defs><g id="Layer_2" data-name="Layer 2"><g id="Layer_1-2" data-name="Layer 1"><path class="cls-1" d="M180.61,4.16,7.79,137.37A20,20,0,0,0,0,153.21V348a20,20,0,0,0,20,20H362.17a20,20,0,0,0,20-20V153.09a20,20,0,0,0-7.64-15.72L205.18,4.27A20,20,0,0,0,180.61,4.16Z"/><path class="cls-2" d="M153.76,250.58,180.68,230a20,20,0,0,1,24.43.11L230,249.49l116.11-81v-100a20,20,0,0,0-20-20h-270a20,20,0,0,0-20,20v100Z"/><path class="cls-3" d="M48.08,162.7a4,4,0,0,1-4-4v-64a4,4,0,0,1,8,0v64A4,4,0,0,1,48.08,162.7Zm0-80a4,4,0,0,1-4-4v-2a4,4,0,0,1,8,0v2A4,4,0,0,1,48.08,82.7Z"/><path class="cls-4" d="M230,249.49l116.11-81v-100a20,20,0,0,0-20-20v120L220.52,242.14Z"/><path class="cls-5" d="M336.08,168.53,225.25,245.81l4.72,3.68,116.11-81v-100A20,20,0,0,0,334.3,50.31a19.82,19.82,0,0,1,1.78,8.22Z"/><path class="cls-6" d="M6.69,362.9,153.76,250.58,1.92,144.71A19.88,19.88,0,0,0,0,153.21V348A19.89,19.89,0,0,0,6.69,362.9Z"/><path class="cls-6" d="M230,249.49,375.54,362.85A19.92,19.92,0,0,0,382.17,348V153.09a19.92,19.92,0,0,0-1.88-8.41Z"/><path class="cls-6" d="M230,249.49,375.54,362.85A19.92,19.92,0,0,0,382.17,348V153.09a19.92,19.92,0,0,0-1.88-8.41Z"/><path class="cls-7" d="M380.29,144.68l-8.32,5.8a18.87,18.87,0,0,1,.2,2.61V348a19.82,19.82,0,0,1-2.74,10.08l6.11,4.76A19.92,19.92,0,0,0,382.17,348V153.09a19.92,19.92,0,0,0-1.88-8.41Z"/><path class="cls-8" d="M372.17,121.94l-.5-.41-.08-.06.65.54h0Z"/><path class="cls-9" d="M205.11,230.13a20,20,0,0,0-24.43-.11L6.68,362.9A19.9,19.9,0,0,0,20,368H362.17a19.88,19.88,0,0,0,13.37-5.16Z"/><path class="cls-6" d="M362.17,358H20a20.06,20.06,0,0,1-5.78-.86L6.68,362.9A19.9,19.9,0,0,0,20,368H362.17a19.88,19.88,0,0,0,13.37-5.16l-7.41-5.77a19.56,19.56,0,0,1-6,.93Z"/><path class="cls-10" d="M229.43,103.86A56,56,0,0,0,150.27,183a56.23,56.23,0,0,0,40.81,17.66,4,4,0,0,0,0-8,48,48,0,1,1,48-48v28a12,12,0,0,1-24,0v-56a4,4,0,0,0-4-4h-20a24,24,0,0,0-24,24v16a24,24,0,0,0,40,17.84v2.16a20,20,0,0,0,40,0v-28a56.24,56.24,0,0,0-17.65-40.82Zm-38.35,64.82a16,16,0,0,1-16-16v-16a16,16,0,0,1,16-16h16v32A16,16,0,0,1,191.08,168.68Z"/><path class="cls-11" d="M94.85,386.23a45.29,45.29,0,0,1,1.65-12.12H87.61a12.12,12.12,0,0,0,0,24.24H96.5A45.29,45.29,0,0,1,94.85,386.23Z"/><path class="cls-12" d="M94.85,386.23a45.29,45.29,0,0,1,1.65-12.12H93.61a10.55,10.55,0,0,0-1.13.06,45.65,45.65,0,0,0-1.63,12.06,46.18,46.18,0,0,0,.75,8.12h-4a12.12,12.12,0,0,1-12-10.12,12,12,0,0,0-.18,2,12.13,12.13,0,0,0,12.13,12.12h8.88a45.69,45.69,0,0,1-1.64-12.12Z"/><path class="cls-11" d="M172.66,492H161a10,10,0,0,1-10-10V431.73h31.63V482A10,10,0,0,1,172.66,492Z"/><path class="cls-12" d="M172.66,431.73V472a10,10,0,0,1-10,10H151a10,10,0,0,0,10,10h11.63a10,10,0,0,0,10-10V431.73Z"/><path class="cls-13" d="M278.19,357.74v57a28.49,28.49,0,1,0,0-57Z"/><path class="cls-14" d="M292.69,361.74a28.41,28.41,0,0,1-14.5,41.14v11.84a28.47,28.47,0,0,0,14.5-53Z"/><path class="cls-11" d="M205.75,431.73h-65.4a45.5,45.5,0,0,1,0-91h65.4Z"/><path class="cls-15" d="M205.75,431.73h-65.4a45.5,45.5,0,0,1,0-91h65.4Z"/><path class="cls-16" d="M195.75,340.73v71a10,10,0,0,1-10,10h-55.4A45.31,45.31,0,0,1,103.57,413a45.45,45.45,0,0,0,36.78,18.72h65.4v-91Z"/><path class="cls-4" d="M205.75,431.73l56.92,37.72a10,10,0,0,0,15.52-8.33V311.34A10,10,0,0,0,262.67,303l-56.92,37.72Z"/><path class="cls-5" d="M268.19,301.34V441.12a10,10,0,0,1-15.52,8.33l-46.92-31.09v13.37l56.92,37.72a10,10,0,0,0,15.52-8.33V311.34A10,10,0,0,0,268.19,301.34Z"/></g></g></svg>