<svg xmlns="http://www.w3.org/2000/svg" viewBox="0 0 513.9 514"><defs><style>.cls-1{fill:#fff;stroke:#fff;stroke-miterlimit:10;stroke-width:2px;}</style></defs><g id="Folder" data-name="Folder"><g id="folder-1" data-name="folder 1"><path class="cls-1" d="M459.7,385H417a10.7,10.7,0,1,1,0-21.4h42.7a32.09,32.09,0,0,0,32-32V97a32.09,32.09,0,0,0-32-32H214.3a11,11,0,0,1-7.6-3.1L167.2,22.3H54.3a32.09,32.09,0,0,0-32,32V331.6a32.09,32.09,0,0,0,32,32H97A10.7,10.7,0,1,1,97,385H54.3A53.35,53.35,0,0,1,1,331.7V54.3A53.35,53.35,0,0,1,54.3,1H171.6a11,11,0,0,1,7.6,3.1l39.5,39.6H459.6A53.35,53.35,0,0,1,512.9,97V331.7A53.2,53.2,0,0,1,459.7,385Z"/><path class="cls-1" d="M257,427.7a53.35,53.35,0,1,1,53.3-53.4A53.35,53.35,0,0,1,257,427.7Zm0-85.4a32,32,0,1,0,32,32A32.09,32.09,0,0,0,257,342.3Z"/><path class="cls-1" d="M274,513H240a21.28,21.28,0,0,1-21.2-19.2l-2.7-27.1A107,107,0,0,1,197.6,456l-24.9,11.2a21.37,21.37,0,0,1-27.3-8.8l-17-29.5a21.34,21.34,0,0,1,6-28l22-15.8a83.66,83.66,0,0,1,0-21.6l-22-15.8a21.32,21.32,0,0,1-6-28l17-29.4a21.18,21.18,0,0,1,27.2-8.8l24.9,11.3A92.64,92.64,0,0,1,216,282.1l2.7-27.1a21.28,21.28,0,0,1,21.2-19.2h34A21.28,21.28,0,0,1,295.1,255l2.9,27a103.44,103.44,0,0,1,18.5,10.7l24.9-11.2a21.37,21.37,0,0,1,27.3,8.8l17,29.5a21.34,21.34,0,0,1-6,28l-22,15.8a83.66,83.66,0,0,1,0,21.6l22,15.8a21.32,21.32,0,0,1,6,28l-17,29.4a21.42,21.42,0,0,1-27.2,8.8l-24.9-11.3a92.64,92.64,0,0,1-18.5,10.7l-2.7,27.1A21.63,21.63,0,0,1,274,513Zm-74.9-80.1a10.56,10.56,0,0,1,6.8,2.5,77.82,77.82,0,0,0,23.7,13.8,10.69,10.69,0,0,1,6.9,9l3.4,33.5h34l3.3-33.5a10.69,10.69,0,0,1,6.9-9,79.92,79.92,0,0,0,23.7-13.8,10.62,10.62,0,0,1,11.2-1.5l30.8,13.9,17-29.5-27.3-19.6a10.77,10.77,0,0,1-4.3-10.5,68.71,68.71,0,0,0,0-27.6,10.77,10.77,0,0,1,4.3-10.5l27.3-19.6-17-29.5L319,314.9a10.59,10.59,0,0,1-11.2-1.5,77.82,77.82,0,0,0-23.7-13.8,10.69,10.69,0,0,1-6.9-9L274,257H240l-3.3,33.5a10.69,10.69,0,0,1-6.9,9,79.92,79.92,0,0,0-23.7,13.8,10.62,10.62,0,0,1-11.2,1.5l-30.8-13.9-17,29.5L174.4,350a10.77,10.77,0,0,1,4.3,10.5,68.71,68.71,0,0,0,0,27.6,10.77,10.77,0,0,1-4.3,10.5l-27.3,19.6,17,29.5,30.8-13.9a9.58,9.58,0,0,1,4.2-.9Z"/></g></g></svg>