<svg xmlns="http://www.w3.org/2000/svg" viewBox="0 0 496.08 514"><defs><style>.cls-1{fill:#fff;stroke:#fff;stroke-miterlimit:10;stroke-width:2px;}</style></defs><g id="profile" data-name="Profile 2"><g id="profile_1" data-name="Profile 1"><path class="cls-1" d="M193,214.3A106.87,106.87,0,0,1,86.3,107.6C86.3,48.8,134.2,1,193,1A106.87,106.87,0,0,1,299.7,107.7C299.7,166.5,251.8,214.3,193,214.3Zm0-192a85.35,85.35,0,1,0,85.3,85.4A85.38,85.38,0,0,0,193,22.3Z"/><path class="cls-1" d="M182.3,449H11.7A10.71,10.71,0,0,1,1,438.3V353a96.15,96.15,0,0,1,96-96H225a10.7,10.7,0,1,1,0,21.4H97a74.77,74.77,0,0,0-74.7,74.7v74.7h160A10.71,10.71,0,0,1,193,438.5,10.54,10.54,0,0,1,182.3,449Z"/><path class="cls-1" d="M363.7,427.7A53.3,53.3,0,1,1,417,374.4,53.35,53.35,0,0,1,363.7,427.7Zm0-85.4a32,32,0,1,0,32,32A32.09,32.09,0,0,0,363.7,342.3Z"/><path class="cls-1" d="M380.7,513h-34a21.28,21.28,0,0,1-21.2-19.2l-2.7-27.1A107,107,0,0,1,304.3,456l-24.9,11.2a21.15,21.15,0,0,1-27.2-8.8l-17-29.5a21.32,21.32,0,0,1,6-28l22-15.8a83.66,83.66,0,0,1,0-21.6l-22-15.8a21.32,21.32,0,0,1-6-28l17-29.5a21.28,21.28,0,0,1,27.2-8.8l24.9,11.2a92.64,92.64,0,0,1,18.5-10.7l2.7-27.1a21.28,21.28,0,0,1,21.2-19.2h34a21.28,21.28,0,0,1,21.2,19.2l2.7,27.1a103.44,103.44,0,0,1,18.5,10.7L448,281.4a21.25,21.25,0,0,1,27.2,8.8l17,29.5a21.32,21.32,0,0,1-6,28l-22,15.8a83.66,83.66,0,0,1,0,21.6l22,15.8a21.32,21.32,0,0,1,6,28l-17,29.4a21.28,21.28,0,0,1-27.2,8.8l-24.9-11.2a92.64,92.64,0,0,1-18.5,10.7l-2.7,27.1A21.29,21.29,0,0,1,380.7,513Zm-75-80.1a10.56,10.56,0,0,1,6.8,2.5,77.82,77.82,0,0,0,23.7,13.8,11,11,0,0,1,7,9l3.4,33.5h34l3.3-33.5a10.63,10.63,0,0,1,7-9,79.92,79.92,0,0,0,23.7-13.8,10.65,10.65,0,0,1,11.2-1.5l30.8,13.9,17-29.5-27.3-19.6a10.77,10.77,0,0,1-4.3-10.5,68.71,68.71,0,0,0,0-27.6,10.77,10.77,0,0,1,4.3-10.5l27.3-19.6-17-29.5L426,314.9a10.62,10.62,0,0,1-11.2-1.5,77.82,77.82,0,0,0-23.7-13.8,11,11,0,0,1-7-9L380.8,257h-34l-3.3,33.5a10.63,10.63,0,0,1-7,9,79.92,79.92,0,0,0-23.7,13.8,10.62,10.62,0,0,1-11.2,1.5l-30.8-13.9-17,29.5L281.1,350a10.77,10.77,0,0,1,4.3,10.5,68.71,68.71,0,0,0,0,27.6,10.77,10.77,0,0,1-4.3,10.5l-27.3,19.6,17,29.5,30.8-13.9a9.46,9.46,0,0,1,4.1-.9Z"/></g></g></svg>