  <svg xmlns="http://www.w3.org/2000/svg" xmlns:xlink="http://www.w3.org/1999/xlink" id="Layer_1" x="0px" y="0px"
      viewBox="0 0 24 24" style="enable-background:new 0 0 24 24;" xml:space="preserve">
      <style type="text/css">
          .st0 {
              fill: none;
              stroke: #ED2A8A;
              stroke-width: 2;
              stroke-linecap: round;
              stroke-linejoin: round;
          }
      </style>
      <path class="st0"
          d="M21,16V8c0-0.7-0.4-1.4-1-1.7l-7-4c-0.6-0.4-1.4-0.4-2,0l-7,4C3.4,6.6,3,7.3,3,8v8c0,0.7,0.4,1.4,1,1.7l7,4  c0.6,0.4,1.4,0.4,2,0l7-4C20.6,17.4,21,16.7,21,16z">
      </path>
      <polyline class="st0" points="3.3,7 12,12 20.7,7 "></polyline>
      <line class="st0" x1="12" y1="22.1" x2="12" y2="12"></line>
  </svg>