<svg id="object" xmlns="http://www.w3.org/2000/svg" viewBox="0 0 96.18 37.34"><defs><style>.cls-1{fill:#8f9198;}</style></defs><path class="cls-1" d="M54.39,372.11V350h5.4v22.15Z" transform="translate(-54.39 -347.09)"/><path class="cls-1" d="M65.35,369.87a10,10,0,0,1,0-13.11,8.56,8.56,0,0,1,6.33-2.44,9.22,9.22,0,0,1,5.46,1.59,7.55,7.55,0,0,1,3,4.56H74.27a2.58,2.58,0,0,0-2.48-1.58,2.89,2.89,0,0,0-2.56,1.21,6.6,6.6,0,0,0,0,6.41,2.79,2.79,0,0,0,2.45,1.21,3.06,3.06,0,0,0,1.58-.34,3.11,3.11,0,0,0,1-1.24H80.1a7.8,7.8,0,0,1-3,4.52,8.91,8.91,0,0,1-5.42,1.67A8.54,8.54,0,0,1,65.35,369.87Z" transform="translate(-54.39 -347.09)"/><path class="cls-1" d="M84.22,369.84a8.58,8.58,0,0,1-2.67-6.57,8.46,8.46,0,0,1,2.65-6.51,10,10,0,0,1,13.11,0,8.48,8.48,0,0,1,2.63,6.51,8.65,8.65,0,0,1-2.62,6.57,9.09,9.09,0,0,1-6.53,2.49A9.25,9.25,0,0,1,84.22,369.84Zm9.16-3.25a4.58,4.58,0,0,0,1.07-3.28,4.46,4.46,0,0,0-1.1-3.27,3.55,3.55,0,0,0-2.62-1.12,3.48,3.48,0,0,0-2.6,1.12,5.41,5.41,0,0,0,0,6.55,3.61,3.61,0,0,0,2.63,1.13A3.45,3.45,0,0,0,93.38,366.59Z" transform="translate(-54.39 -347.09)"/><path class="cls-1" d="M108.49,354.5v2.59a5.76,5.76,0,0,1,5.33-2.77,6.41,6.41,0,0,1,4.91,2,7.77,7.77,0,0,1,1.88,5.49v10.29h-5.37v-9.56a3.64,3.64,0,0,0-.9-2.64,3.76,3.76,0,0,0-5,0,3.64,3.64,0,0,0-.9,2.64v9.56H103.1V354.5Z" transform="translate(-54.39 -347.09)"/><path class="cls-1" d="M129.79,352.52a3.25,3.25,0,1,1,.91-2.26A3,3,0,0,1,129.79,352.52Zm-4.93,19.59V354.5h5.4v17.61Z" transform="translate(-54.39 -347.09)"/><path class="cls-1" d="M135.83,369.87a10,10,0,0,1,0-13.11,8.54,8.54,0,0,1,6.32-2.44,9.17,9.17,0,0,1,5.46,1.59,7.55,7.55,0,0,1,3,4.56h-5.83a2.57,2.57,0,0,0-2.48-1.58,2.88,2.88,0,0,0-2.55,1.21,6.53,6.53,0,0,0,0,6.41,2.76,2.76,0,0,0,2.44,1.21,3.06,3.06,0,0,0,1.58-.34,3,3,0,0,0,1-1.24h5.83a7.83,7.83,0,0,1-3,4.52,9,9,0,0,1-5.43,1.67A8.51,8.51,0,0,1,135.83,369.87Z" transform="translate(-54.39 -347.09)"/><path class="cls-1" d="M77.09,379.9v4.48H76v-2.53l-1,2.53h-.81l-1-2.53v2.53H72V379.9h1.26L74.56,383l1.28-3.09Z" transform="translate(-54.39 -347.09)"/><path class="cls-1" d="M83.69,379.89v.83H82.06v1H83.5v.83H82.06v1h1.63v.83H81v-4.49Z" transform="translate(-54.39 -347.09)"/><path class="cls-1" d="M90.47,379.89h1.09v4.49H90.47l-1.83-2.83v2.83H87.55v-4.49h1.09l1.83,2.83Z" transform="translate(-54.39 -347.09)"/><path class="cls-1" d="M97,380.7a.46.46,0,0,0-.33.11.36.36,0,0,0-.13.31.45.45,0,0,0,.12.33.74.74,0,0,0,.31.19,3.88,3.88,0,0,0,.44.13,3.68,3.68,0,0,1,.47.15,1.56,1.56,0,0,1,.43.21.87.87,0,0,1,.32.36,1.22,1.22,0,0,1,.12.56,1.23,1.23,0,0,1-.46,1,1.8,1.8,0,0,1-1.22.41,1.89,1.89,0,0,1-1.22-.37,1.22,1.22,0,0,1-.46-1h1.16c0,.36.21.54.55.54a.54.54,0,0,0,.37-.13.41.41,0,0,0,.13-.32.43.43,0,0,0-.12-.31.86.86,0,0,0-.31-.19,3.88,3.88,0,0,0-.44-.13,3.68,3.68,0,0,1-.47-.15,2.56,2.56,0,0,1-.44-.21,1,1,0,0,1-.31-.36,1.2,1.2,0,0,1-.12-.55,1.23,1.23,0,0,1,.46-1,1.84,1.84,0,0,1,1.19-.37,1.94,1.94,0,0,1,1.18.33,1.23,1.23,0,0,1,.46,1H97.45a.6.6,0,0,0-.15-.37A.45.45,0,0,0,97,380.7Z" transform="translate(-54.39 -347.09)"/><path class="cls-1" d="M107.47,379.9h1.18l-1.25,4.48h-1.26l-.78-2.84-.78,2.84h-1.25l-1.27-4.48h1.17l.78,3.22.79-3.22H106l.77,3.17Z" transform="translate(-54.39 -347.09)"/><path class="cls-1" d="M114.81,379.89v.83h-1.62v1h1.43v.83h-1.43v1h1.62v.83H112.1v-4.49Z" transform="translate(-54.39 -347.09)"/><path class="cls-1" d="M121.52,384.38l-.25-.75h-1.61l-.25.75h-1.16l1.56-4.49h1.33l1.55,4.49Zm-1.58-1.58H121l-.53-1.6Z" transform="translate(-54.39 -347.09)"/><path class="cls-1" d="M127.24,382.64v1.74h-1.09V379.9h1.77a1.7,1.7,0,0,1,1.21.4,1.28,1.28,0,0,1,.44,1,1.36,1.36,0,0,1-.24.76,1.34,1.34,0,0,1-.77.53l1.1,1.82h-1.28l-1-1.74Zm0-1.91v1.08h.68a.51.51,0,0,0,.39-.15.48.48,0,0,0,.14-.38.56.56,0,0,0-.14-.4.53.53,0,0,0-.39-.15Z" transform="translate(-54.39 -347.09)"/></svg>