<svg id="object" xmlns="http://www.w3.org/2000/svg" viewBox="0 0 127.2 47.94"><defs><style>.cls-1{fill:#8f9198;}</style></defs><path class="cls-1" d="M658.94,61.45c.27-.32.54-.7.81-1.08a5,5,0,0,1,2.84-2,1.49,1.49,0,0,1,1.07.21,2.15,2.15,0,0,0,1.56.22c.64-.11,1.07,0,1.24.37a4,4,0,0,0-.06.7,1.42,1.42,0,0,1-.27,1.18c-.1,0,0,.16,0,.27-.05,1.23.27.16-.27,1.39-.27.59-.32,1.13-.54,1.61-2.57,6.5.11,3.28,2.26.43a4.2,4.2,0,0,1,1.07-1.55c.75-1.08,1.67-2,2.42-3.17a19.8,19.8,0,0,1,4.29-4.19c.59-.37,1.13-1,1.66-.85a2.58,2.58,0,0,1,1.45.59,3.49,3.49,0,0,1,.91,1.12c.11.06.16.11.22.11.75.16.75.91.75,1.61a2.36,2.36,0,0,0-.16.43,17.54,17.54,0,0,0-1.61,4.45c-.11.75-.22,1.56-.27,2.26s-.16,1.5-.32,2.3a3.66,3.66,0,0,1-.7,2.1s0,.1,0,.21c.38.32-.16.7-.32,1.07,0,.17-.16.38,0,.54a2,2,0,0,1-.38,1.83,1.93,1.93,0,0,0,0,.32c-.16.48-.27.91-.38,1.34.05,0,.05,0,.27-.16-.16.75-1.07,1.39-.81,2.09.38,0,.33.38.22.86a19.78,19.78,0,0,1-.86,3.22s0,.11,0,.16c.27.54-.37,1.29-.21,2,0,.42-.27,1,0,1.5a1.81,1.81,0,0,1-.59,1.07c-.11.22-.38.38-.59.59-.32.75-.38.81-1.07.86a4.11,4.11,0,0,0-.65.11c-.37,0-.64,0-.8-.22a.69.69,0,0,0-.43-.21c-.7-.16-.92-.81-.59-1.5a44,44,0,0,0,1-5.48,14.28,14.28,0,0,0,.37-1.39c.22-.65.38-1.4.7-2.15,0,.22-.11.48-.11.75.16-.11.16-.11.22-.11a7.8,7.8,0,0,0,.32-1.18,11.73,11.73,0,0,0,.54-2.89.16.16,0,0,1,0-.22c.53-.54.05-1.07.48-1.61.16-.16.11-.37.16-.48a2.5,2.5,0,0,1,.48-1.77V68.8l0,0c-.38.8-.7,1.61-1,2.41H673c.8-4.72,1-5.31-2.63-.21-.05-.06-.11-.11-.11-.16a.23.23,0,0,0-.16,0,1.81,1.81,0,0,1-.16.48,2.44,2.44,0,0,1-1.23,1.4.37.37,0,0,0-.27.32,1.71,1.71,0,0,0-.49.64c-.59,1.67-4.07,6.6-5.09,8.27A8.46,8.46,0,0,1,661,83.82c0-.32-.05-.53.11-.75H661a11.7,11.7,0,0,1-.75,1.08c0-.06-.05-.06-.11-.11a1.9,1.9,0,0,1-1.45,1.13,4.25,4.25,0,0,1-2.79.16,4.51,4.51,0,0,1-1.66-.59c-.38-.27-.43-.22-.05-.86a26.28,26.28,0,0,1,1.61-2.47,3.41,3.41,0,0,0,.86-2.31c1.18-5.95,4.5-13.52.1-6.65a16.32,16.32,0,0,1-1.82,2.63c-1.72,3.7-6,9.17-6.6,13.15a4.31,4.31,0,0,1-.38,1.18c-.32.48-.59.53-.86.32s-.21-.06-.26-.11c-.27-.64-.81-.75-1.51-.86a3,3,0,0,1-1-.48s0-.32.06-.43a19.81,19.81,0,0,0,1.88-5.31,16.46,16.46,0,0,1,.42-2c.17-.81,1.51-4,1.72-4.78l.65-2.57c.42-1.67.8-3.33,1.28-5a5.9,5.9,0,0,0,.22-1.08,12.42,12.42,0,0,1,1-3.75c.16-.38.22-.81.43-1.24a12.08,12.08,0,0,1,.43-1.18c.16-.37.38-.54.65-.43.26.27.64.49.91.75s.11.54.16.86a23.08,23.08,0,0,1-.75,3.22c-1.24,6,3.38-.86,4-1.82C657.82,62.79,658.46,62.15,658.94,61.45Zm-3,21.41c.06-.11.11-.22.27-.48v-.27a1.28,1.28,0,0,1-.32.37.74.74,0,0,1-.06.38Zm7.35-10.47a13.14,13.14,0,0,0,.81-1.34,5.2,5.2,0,0,1,1.55-2.14,1.56,1.56,0,0,0,.33-.81A17.83,17.83,0,0,0,663,72.77,1.12,1.12,0,0,0,663.34,72.39Zm5.26-7.24a.67.67,0,0,1,.22-.43A17.4,17.4,0,0,0,670.53,62a18.93,18.93,0,0,0-2.73,3.81A1.32,1.32,0,0,0,668.6,65.15Z" transform="translate(-644.27 -52.33)"/><path class="cls-1" d="M680,73.58a8.62,8.62,0,0,1-1-3.39,3.89,3.89,0,0,1,.59-2.62.51.51,0,0,1,.37-.27,10.68,10.68,0,0,1,1.61-1.08,2.37,2.37,0,0,1,1.72-.26c.43,0,1.61,1.07,1.88,1.28a7.41,7.41,0,0,0,1,.81,3.89,3.89,0,0,1,1.07,1.61,8.31,8.31,0,0,0,.48,1.18,12.12,12.12,0,0,1,.33,1.55,8.42,8.42,0,0,0,.16,1.29c0,.06,0,.06,0,.16-.16-.85,0,.38,0,.54a10.08,10.08,0,0,1,0,1.83c-.16.32.16.69.59.69,2.63-.16,3.65.22,6.22-.21.27-.11.54-.27.86-.43.11-.05.27-.16.38-.22a.56.56,0,0,1,0,.49c-.16.27.37.37.16.59-1.61,1.71-6.55,1.66-8.48,1.66h-.16c-.16,0-.32,0-.32.16s-.06.16-.11.27a13.36,13.36,0,0,1-1,2.68,6.61,6.61,0,0,1-1,1.61,3.18,3.18,0,0,1-.75.91c-.11.06-.22.17-.38.27a.64.64,0,0,0-.32.33,3.14,3.14,0,0,1-1.5,1,1.36,1.36,0,0,0-.54.22,5.12,5.12,0,0,1-2.2.05,3,3,0,0,1-2.15-1.71c-.16-.43-.32-1-.48-1.45a13.8,13.8,0,0,1-.05-2.95,8.75,8.75,0,0,1,.91-3,11.8,11.8,0,0,1,2-3.16c.16,0,.16-.16.21-.32A.19.19,0,0,0,680,73.58Zm6.38-2.15a14.93,14.93,0,0,0-.37-1.72,2.68,2.68,0,0,0-.75-1.29,2.89,2.89,0,0,0-.7-.64,6.32,6.32,0,0,0-1-.7c-.64-.53-1.82.59-2.2,1-1.45,2,0,4.83,1.29,6.28,1.56,3.06,4.4,2,3.76-1.61A2.17,2.17,0,0,0,686.36,71.43Zm-4.77,10.46a4.15,4.15,0,0,0-.06.86c-.1.11,0,.16.06.27a1.1,1.1,0,0,0,.59.64c.05,0,.05,0,.1,0s.17-.11.22-.16A11.7,11.7,0,0,0,684.59,80a7.85,7.85,0,0,0,.54-1.28c-1.24-.54-1.83-.06-2.52.86A7.3,7.3,0,0,0,681.59,81.89Z" transform="translate(-644.27 -52.33)"/><path class="cls-1" d="M710.89,76.74c-.33.43-.65.91-1,1.34a10.36,10.36,0,0,0-1,1.67s0,.16-.05.16c-.38.53-.7,1.07-1.07,1.5-.59.64-1.13,1.23-1.72,1.82a10.52,10.52,0,0,1-1.83,1.35,13.87,13.87,0,0,1-2.73,1.23,22.77,22.77,0,0,0-2.74,0c-.75.16-2.36-.54-3.06-.8a10,10,0,0,1-2.09-1.19,4.75,4.75,0,0,1-1.72-3.48,12.55,12.55,0,0,1,0-2.74,8.37,8.37,0,0,1,.33-1.61c.16-.38.26-.75.42-1.13a19.35,19.35,0,0,1,1.56-3.16c.16-.22.27-.43.43-.65a7.2,7.2,0,0,1,1.4-1.66A24.93,24.93,0,0,1,698,67.78a1.87,1.87,0,0,1,1.12-.38,1.71,1.71,0,0,0,.49-.1,2.14,2.14,0,0,1,1.23-.27s0,0,0,0a2.68,2.68,0,0,1,1.78.54c.05,0,.1.05.16.05a.22.22,0,0,0,.16-.05c.16-.11.27-.17.43-.06a.6.6,0,0,1,.21.59.81.81,0,0,0,.05.7c.06,0,0,.16.06.21l-.32.49a5.5,5.5,0,0,0,.21,1A7,7,0,0,1,703.8,72a4.35,4.35,0,0,1,0,.8,15.73,15.73,0,0,1-.91,2.74.93.93,0,0,1-.7.64c-.11,0-.22.06-.32.06a.51.51,0,0,1-.33-.11,3.41,3.41,0,0,0-1-.59c0-.06-.11-.06-.16-.11a.49.49,0,0,1-.22-.54c.06-.26.11-.53.16-.75a32.31,32.31,0,0,1,1-3.11.85.85,0,0,1,.06-.32,1.24,1.24,0,0,1-.22.16,10.85,10.85,0,0,1-1.29,1.82,11.84,11.84,0,0,0-1.12,1.94c-.43.91-.86,1.77-1.29,2.68a13.7,13.7,0,0,0-1,2.63,5.07,5.07,0,0,0-.16.86,2.09,2.09,0,0,0,.16,1.12c.17.32.33.7.49,1.08a4,4,0,0,0,.43.64c.26.32,1.61-.21,2-.27a12.08,12.08,0,0,0,4.72-2.14,35.54,35.54,0,0,0,3-2.58c.27-.32.54-.64.8-1,.49-.64,2-1.71,2.47-2.41.27-.38,1.13-.86,1.4-1.23s0,.75.27.59A8.44,8.44,0,0,1,710.89,76.74Z" transform="translate(-644.27 -52.33)"/><path class="cls-1" d="M719,84.36a10.29,10.29,0,0,0,.91,1.5,1,1,0,0,0,.92.65,2.67,2.67,0,0,0,1.71-.16c.54-.16,2.47-1.72,3.06-2,.22-.11,2.42-2.47,2.68-2.63a19.09,19.09,0,0,0,2.2-3.16c.54-.86,1-1.83,1.51-2.69.1-.21.21-.43.32-.69s.11-.43.16-.65c.27.75,1,.16.75.7a2.05,2.05,0,0,0-.16.7,9.69,9.69,0,0,1-1,2,10.92,10.92,0,0,1-.91,2.15v.11c-.32.64-.81,1.34-1.13,2-.37.43-2.9,3.22-3.33,3.6a2.85,2.85,0,0,1-.91.54c-.8.43-2.9,2.14-3.7,2.36a9.73,9.73,0,0,1-1.66.27,3,3,0,0,1-2.31-.86c-.27-.32-.59-.7-.86-1.08-.59-1-1.34-2.14-1.88-3.32-.48-.59-.64-1.08-1.13-.38-.1.16-.1.48-.21.65a9.29,9.29,0,0,0-.54,1,4.2,4.2,0,0,1-.48,1,.64.64,0,0,1-.64.27,1,1,0,0,0-.81.27c-1.12.48-1.55.48-2.36-.22a4.1,4.1,0,0,1-1.61-3,.62.62,0,0,1-.05-.32,9.72,9.72,0,0,0-.06-2.52,21.62,21.62,0,0,1,.06-3.22,13,13,0,0,0,.16-1.4,20.15,20.15,0,0,1,.86-4.4c.27-.86.53-1.77.86-2.57a48.35,48.35,0,0,1,1.77-4.51c.37-.64.59-1.34,1-1.93a55.37,55.37,0,0,1,3.17-5.69,19.64,19.64,0,0,1,2.47-3.06c.37-.32.75-.7,1.18-1a2.28,2.28,0,0,1,1.34-.37s.16.16.27.21a4.53,4.53,0,0,0,1.45,1.4,10.13,10.13,0,0,1,2.46,2.73,3.09,3.09,0,0,1,.54,1.77v.49a.68.68,0,0,1-.54.48,1.29,1.29,0,0,0-.37-.22c-.11-.16-.32-.26-.43-.42-.54-.43-1-.38-1.56.21-.48.43-1,1-1.5,1.5a1.61,1.61,0,0,1-.32.54c-.54.86-1.13,1.61-1.67,2.36a1,1,0,0,1-.16.38,8.91,8.91,0,0,1-.8,1.66c-.38.75-.81,1.5-1.18,2.36-.22.38-.38.7-.59,1.13-.43,1-1,2.09-1.4,3.16a28.08,28.08,0,0,0-1.5,4c0,.33-.16.54-.21.81a17.46,17.46,0,0,1-.49,2c-.21,1.72.27,1.66.65,1.07.8-1.23,1.39-2.68,2.3-3.92a26.89,26.89,0,0,1,3.06-3.65,4.2,4.2,0,0,1,3.49-1,.74.74,0,0,1,.65.48,1.16,1.16,0,0,0,.21.37,3.22,3.22,0,0,1,.59,2,12.61,12.61,0,0,1-.59,3.92c-.05.21-.05.32-.11.53a7.38,7.38,0,0,1-1,1.94c-.32.26-.53.59-.8.8a3,3,0,0,1-1.24,1,3.88,3.88,0,0,0-.69.26c-.17,0-.17.22-.33.27A3.36,3.36,0,0,0,719,84.36Zm-11.32-5V80.5A1.94,1.94,0,0,0,707.72,79.37ZM717.48,76a6.52,6.52,0,0,1-.64,1.4c-.21.54-.54.91-.7,1.39-.59.86,1.08.33,1.4,0a9.68,9.68,0,0,0,2.9-4.13c.85-2.79-.16-2.52-1.51-.8A8.09,8.09,0,0,0,717.48,76Z" transform="translate(-644.27 -52.33)"/><path class="cls-1" d="M735.41,80.93a10.21,10.21,0,0,1-2.69.59,6.52,6.52,0,0,1-2.09-.49c-1.34-.8-1.39-1.18-1.66-3a3.92,3.92,0,0,1,.27-2.25c.27-1.23,3.16-5.69,3.65-6.82a11.11,11.11,0,0,1,1-1.82c.16-.38.43-.48.7-.64s.75-.16,1-.43c.8-.43.21-.81.75-.86a1.34,1.34,0,0,1,1.18.59c.22.05.22.32.43.54s.11.32.11.53c-.32,1.34-1.51,3.87-1.83,5.15a11.79,11.79,0,0,0-.48,2.2,5.83,5.83,0,0,1-.48,1.56c-.11.43-.38,1.23-.11,1.45s.32,1.18.64,1.07c1.29-.7,3-.75,3.71-1.61.43-.59.69-.32,1.12-.86a3.51,3.51,0,0,0,.65-1c.32-.7.37-.49.64-1.08a12,12,0,0,1,1.24-1.93,4.07,4.07,0,0,1,.69-1.23c.54-.16.49-.11.7-.06.81-.05.11,0,.59.27.11.22,0,.43.16.54-.37,1-.43,2.09-.91,3.27-.16.38,0,0-.38.49a2.44,2.44,0,0,1-.37,1.23c-.22.48-.16,1.07-.48,1.5-.43,1.83-.65,2.79-.65,3-.16.69,1.72,1.18,3.6.59a13.42,13.42,0,0,0,4.45-4.3c.38-.64.7-1.28,1.29-2.14s1,.64.75,1a3.4,3.4,0,0,0-.32.64c-.43.32-.92,2-1.29,2.36-.11.11-.05.27-.32.38a23,23,0,0,1-3.17,3.27,4.69,4.69,0,0,0-1,.48,3.09,3.09,0,0,1-1,.7,1.35,1.35,0,0,0-.59.38.65.65,0,0,0-.7.16c-1,.59-5.37.8-5.69-1a8.61,8.61,0,0,1,0-4.4v-.22A19.94,19.94,0,0,1,735.41,80.93Z" transform="translate(-644.27 -52.33)"/><path class="cls-1" d="M765.08,76.9c.06,1.34.48.86,2.47.54a4.65,4.65,0,0,0,2.58-1.34c.48-.49,1.07.11,1.34.37a5.83,5.83,0,0,1-.81,1.4,10.39,10.39,0,0,1-5.1,1.55c-1.34.33-1.44,1-1.93,2.1l-.21.43a6.56,6.56,0,0,1-.81,1.61,1.94,1.94,0,0,1-.32.32l-.54.64a3.35,3.35,0,0,1-.91,1.08l-.37.42-.54.49a.79.79,0,0,1-.48,0,2.55,2.55,0,0,0-.54-.32,1.67,1.67,0,0,1,0-.49c-.11-.48-.27-.91-.75-1a2.31,2.31,0,0,1-.54-.49,1.71,1.71,0,0,0-.65-.59,1.41,1.41,0,0,1-.16-1.87,2.11,2.11,0,0,1,.81-1,4.34,4.34,0,0,1,1.07-.64,13.34,13.34,0,0,1,1.93-.76,2,2,0,0,0,.86-1.18,36.32,36.32,0,0,0,1-4.88V71.54a.65.65,0,0,0-.06-.33c-.05-.26-.32-.37-.48-.16a.38.38,0,0,0-.21.27,11.7,11.7,0,0,0-1,1.83c-.81,1.55-1.56,3.22-2.36,4.72a35.24,35.24,0,0,0-1.61,3.33c-.81,1.93-2.63,3.86-3.33,6a2,2,0,0,1-.59,1c-.27.11-.38.53-.38.86a3.7,3.7,0,0,1-.16,1.12,2,2,0,0,1-.32.54,5.2,5.2,0,0,0-.59.91,13.46,13.46,0,0,0-1.07,4.13,12.81,12.81,0,0,1-.22,1.94,1.16,1.16,0,0,1-.64,1,1.47,1.47,0,0,0-.64.81c-.06,0-.22.27-.27.27s-.22.37-.33.53h0c-.86.17-1.39-.48-1.72-1.5a12.86,12.86,0,0,1-.48-3.22,44.28,44.28,0,0,1,.38-7.62c.1-1,.32-2.09.48-3.06a35.18,35.18,0,0,1,1-4.88q.88-3.54,1.93-6.92c.16-.54.38-1,.54-1.66.64-1.61,1.18-3.33,1.82-5a25,25,0,0,1,1.08-2.53.59.59,0,0,1,.8,0l1.29.81,0,0a6.6,6.6,0,0,1,1.45,3.76,7.46,7.46,0,0,1-.16,2.63c-.32,1.28-.7,2.68-1.18,4-.32.86-.65,1.93-1,2.9-.86,3,.86,2.63,1.24,1.72.16-.43,1-1.51,1.12-2l1.77-3.65a6,6,0,0,1,1-1.72c.38-.43.75-1,1.18-1.39a1.88,1.88,0,0,1,1.18-.59h.91c.49-.11.92.32,1.35.69a1.46,1.46,0,0,1,.53,1,10.79,10.79,0,0,1,.16,1.29l.22,1.56Zm-6.28,4.24a1.2,1.2,0,0,0-.53,1.18c.05.27.21.49.37.49s.27-.11.38-.22a2.15,2.15,0,0,0,.7-.64c.59-.81.8-1.67.64-1.34C759.77,80.87,759.29,80.77,758.8,81.14Z" transform="translate(-644.27 -52.33)"/></svg>