<svg id="object" xmlns="http://www.w3.org/2000/svg" viewBox="0 0 95.42 34.22"><defs><style>.cls-1{fill:#8f9198;}</style></defs><path class="cls-1" d="M56.11,616V603.27c0-2,.13-2.93-1.34-2.93V600H64.3v.3c-1.43,0-1.37.53-1.37,2.93v12.92c0,3.93,2.07,5.6,5.23,5.6,3.57,0,5.37-2.47,5.37-5.6v-8.66c0-2.73-.87-7.19-4-7.19V600h8.72l0,.3c-3.74,0-4.43,4.46-4.43,7.19v8.66c0,4.4-2.94,7.59-8.8,7.59C60.5,623.78,56.11,621.39,56.11,616Z" transform="translate(-54.77 -598.64)"/><path class="cls-1" d="M93.21,613a3.15,3.15,0,0,1-4.4.33,2.94,2.94,0,0,1-1.06-2.06c0-.43-1.07-.2-2.44,1.86v6.63c0,1.83.17,3.17,1.37,3.5v.27H78.35v-.27c1.27-.37,1.3-1.8,1.3-3.5v-8.13c0-1.16-.4-1.63-1.76-2.13v-.26l7.42-1.4v4.66c2.37-3.56,3.37-4,4.37-4.43a3.16,3.16,0,0,1,3.19.53A3.12,3.12,0,0,1,93.21,613Z" transform="translate(-54.77 -598.64)"/><path class="cls-1" d="M113.66,615.52c0,6.6-4.4,8.26-8.66,8.26-2.63,0-4.2-.63-5.1-1.46-1.06.7-4.63,1.53-4.63,1V602.44c0-1.14-.33-1.64-1.7-2.14V600l7.33-1.4v11.69c1-1.67,2.63-2.53,5.73-2.53C111.23,607.8,113.66,611.4,113.66,615.52ZM107,616c0-3.9-.93-7.19-3.33-7.19-2.23,0-2.73,2.73-2.73,5.29v3.53c0,3.8.77,5.87,2.76,5.87S107,621.32,107,616Z" transform="translate(-54.77 -598.64)"/><path class="cls-1" d="M132.11,621.35c-.47,1.47-2.2,2.43-4.3,2.43,0,0-3.7,0-4-3-.43,1.73-2.13,3-4.49,3-1.27,0-4.17-.56-4.17-3.39,0-3.33,2.7-4,8.63-5.36v-2.14c0-3.46-2-5.33-4.26-4.13,0,0-.74.44.4.84a2.17,2.17,0,0,1,1.2,1.26,2.36,2.36,0,1,1-4.37,1.8,2.42,2.42,0,0,1,.4-2.46,7.69,7.69,0,0,1,2.23-1.7,6.57,6.57,0,0,1,3.13-.7c4.37,0,6.8,2.73,6.8,6.66v5s0,2.4,1.6,2.33c0,0,.83,0,1-.56Zm-8.33-6c-2.73.6-2.7,2.63-2.7,4.19,0,0,0,2.2,1.3,2.2.57,0,1-.46,1.4-1.26Z" transform="translate(-54.77 -598.64)"/><path class="cls-1" d="M150.19,623.22v.27h-8.33v-.27c1.27-.37,1.34-1.83,1.34-3.53V613c0-1.89-.7-2.79-2.3-2.79a2.7,2.7,0,0,0-2,1.29v8.23c0,1.83.17,3.17,1.37,3.5v.27H132v-.27c1.27-.37,1.3-1.77,1.3-3.5v-8.13c0-1.16-.36-1.63-1.73-2.13v-.26l7.39-1.4V611a5.43,5.43,0,0,1,4.43-3.23c2.67,0,5.47,1.06,5.47,5.06v6.83C148.83,621.52,149,622.92,150.19,623.22Z" transform="translate(-54.77 -598.64)"/><path class="cls-1" d="M82.41,627.59v1h-1.9v1.12h1.68v1H80.51v1.22h1.9v1H79.23v-5.27Z" transform="translate(-54.77 -598.64)"/><path class="cls-1" d="M90.27,632.86,90,632H88.1l-.3.88H86.44l1.83-5.27h1.55l1.82,5.27ZM88.42,631h1.24L89,629.13Z" transform="translate(-54.77 -598.64)"/><path class="cls-1" d="M95.34,628.58v-1h4.14v1H98v4.28H96.76v-4.28Z" transform="translate(-54.77 -598.64)"/><path class="cls-1" d="M106.85,627.59v1H105v1.12h1.67v1H105v1.22h1.9v1h-3.18v-5.27Z" transform="translate(-54.77 -598.64)"/><path class="cls-1" d="M112.65,630.82v2h-1.28v-5.25h2.07a2,2,0,0,1,1.42.47,1.48,1.48,0,0,1,.51,1.14,1.68,1.68,0,0,1-.27.89,1.53,1.53,0,0,1-.91.61l1.29,2.14H114l-1.18-2Zm0-2.24v1.26h.79a.58.58,0,0,0,.46-.17.57.57,0,0,0,.17-.45.65.65,0,0,0-.17-.46.62.62,0,0,0-.46-.18Z" transform="translate(-54.77 -598.64)"/><path class="cls-1" d="M122.44,632.86h-1.28v-1.69l-1.82-3.56h1.46l1,2.37,1-2.37h1.45l-1.82,3.56Z" transform="translate(-54.77 -598.64)"/></svg>