<svg id="object" xmlns="http://www.w3.org/2000/svg" viewBox="0 0 111.51 54.11"><defs><style>.cls-1{fill:#8f9198;}</style></defs><path class="cls-1" d="M842.07,479.12c1-2.95,7.37-10.81,8.42-11.86a1.72,1.72,0,0,1,1.53-.67c8.73-4.67,12.17,13.58,8.18,17.63a4,4,0,0,1-3.81,1.3,17.65,17.65,0,0,0-1.85-.43c-.31-.07-.43-.19-.43-.5.06-1.53.19-3.13.25-4.67.06-.73.12-1.6.18-2.33.13-1.42.19-2.95.25-4.37v-.49c.67-4.73-3.26-1.35-3.38-.37a4,4,0,0,1-.86,1.6,7.94,7.94,0,0,0-1.72,2.58c-.56,1.36-1.23,2.58-1.72,3.87a19.86,19.86,0,0,0-1.48,5.17c-.24,1.35-.43,2.64-.55,4s-.49,2.64-.62,3.93a25.43,25.43,0,0,0,.13,3c.06.49.12.86.18,1.41,1,6.88,3.32,3.07,4.24.61.43-1.1.62-2.15.92-3.19a1.47,1.47,0,0,0-.06-1.35c-.49-1,.06-2,1.23-2.46a16.22,16.22,0,0,1,3.75-.8c1.35-.19,1.9.61,2,1.66a4.58,4.58,0,0,1-.31,1.72c-1.66,3.81-3.44,9.83-5.65,12.11-.25.12-.43.49-.62.73a1.56,1.56,0,0,1-1.72.92,8.45,8.45,0,0,0-2.46,0,5.81,5.81,0,0,1-2.89-.49,7.91,7.91,0,0,0-1.16-.06,1.63,1.63,0,0,1-.92-.12,6.4,6.4,0,0,1-3.14-2.27,2.44,2.44,0,0,1-.86-1.54,6.5,6.5,0,0,0-.43-1.29,11.69,11.69,0,0,1-.49-4.3,13.87,13.87,0,0,1,.37-2.71c.37-1.47.67-2.89,1.1-4.42.43-1.23,1-2.64,1.36-3.87.3-.74.55-1.48.86-2.15h-.25c-.06.12-.18.3-.31.55a4.34,4.34,0,0,1-.43.61C839.92,483.61,840.9,481.34,842.07,479.12Z" transform="translate(-836.21 -465.83)"/><path class="cls-1" d="M860.87,490.12a10,10,0,0,1-1.17-3.87,4.51,4.51,0,0,1,.68-3,.63.63,0,0,1,.43-.31,12.22,12.22,0,0,1,1.84-1.22,2.68,2.68,0,0,1,2-.31c.49,0,1.84,1.23,2.15,1.47a8,8,0,0,0,1.17.92,4.56,4.56,0,0,1,1.23,1.85,9.07,9.07,0,0,0,.55,1.35,13.66,13.66,0,0,1,.37,1.78,10.9,10.9,0,0,0,.18,1.48c.07.06.07.06.07.18-.19-1,.06.43,0,.62a12,12,0,0,1-.07,2.09c-.18.36.19.79.68.79,3-.18,4.18.25,7.13-.24.31-.12.61-.31,1-.49.13-.06.31-.19.43-.25a.56.56,0,0,1,0,.55c-.18.31.43.43.19.68-1.85,2-7.5,1.91-9.71,1.91h-.19c-.18,0-.37.06-.37.18s-.06.18-.12.31a15.44,15.44,0,0,1-1.17,3.07,7.5,7.5,0,0,1-1.16,1.84,3.84,3.84,0,0,1-.86,1.05,3.36,3.36,0,0,0-.43.31.68.68,0,0,0-.37.36,3.55,3.55,0,0,1-1.72,1.17,1.52,1.52,0,0,0-.62.25,6,6,0,0,1-2.52.06,3.41,3.41,0,0,1-2.46-2c-.18-.49-.36-1.1-.55-1.66a15.83,15.83,0,0,1-.06-3.38,9.87,9.87,0,0,1,1-3.38,14,14,0,0,1,2.28-3.62c.18-.06.18-.19.24-.37A.25.25,0,0,0,860.87,490.12Zm7.31-2.45a19,19,0,0,0-.42-2,3,3,0,0,0-.87-1.48,3.09,3.09,0,0,0-.79-.73,6.81,6.81,0,0,0-1.11-.8c-.74-.62-2.09.67-2.52,1.1-1.66,2.34-.06,5.54,1.47,7.2,1.79,3.5,5,2.27,4.31-1.85A2.37,2.37,0,0,0,868.18,487.67Zm-5.46,12a4.67,4.67,0,0,0-.07,1c-.12.13,0,.19.07.31a1.29,1.29,0,0,0,.67.74c.06,0,.06,0,.12-.06s.19-.13.25-.19a13.47,13.47,0,0,0,2.4-3.93,9.69,9.69,0,0,0,.61-1.48c-1.41-.61-2.09-.06-2.89,1A8.31,8.31,0,0,0,862.72,499.65Z" transform="translate(-836.21 -465.83)"/><path class="cls-1" d="M888.22,484.53c.49-1.1,1-2.21,1.54-3.19a16.29,16.29,0,0,0,1.1-4.37c.13-1.23-.49-3.56-1.47-1.41-.25.74-.62,1.47-.86,2.21-.43,1.17-.86,2.4-1.36,3.69-.12.49-.36,1-.55,1.66a31.69,31.69,0,0,1-1.6,4.18,18.8,18.8,0,0,1-1,2.64c-.86,2-.37,1.17-1.17,3.26-.31.73-.74,1.9.19,2.15.73-.12,2.88.92,3.44.8.92,0,1.78.55,2.52.3.37-.12.67-.18.92-.24,1.66-.55,0,.18,1.54-.74.73,0,2.08-3,2.88-2.89,2.71-1.41.93,1.78-1.53,3.69-.25.18-.92.55-1.17.74-6.15,2.21-11.43-2.09-11.06.43.12,1.41.12,2.76.18,4a3.55,3.55,0,0,0,0,.8c-.06.74-.06,1.29-.06,2.09a3.88,3.88,0,0,0-.18,1.11,5.49,5.49,0,0,0-.31,1.41,2.94,2.94,0,0,0-.12,1.11,6.72,6.72,0,0,0-.31,1.35h-.06c.06-.12.06-.19.12-.25s-.12-.12-.12-.06-.13.12-.19.12a.4.4,0,0,0-.06.25,1.78,1.78,0,0,1-.18,1,14.53,14.53,0,0,0-.37,1.48,10,10,0,0,1-1,2.4v.43a1.4,1.4,0,0,1-.5,1l-.18.37a28.2,28.2,0,0,1-1.29,2.7,1.12,1.12,0,0,1-.86.8,2.85,2.85,0,0,0-.74.06c-.12,0-.12.19-.31.13s-.36.06-.49.12a1.29,1.29,0,0,1-1.29-.31,8.2,8.2,0,0,1-.8-.74,2.87,2.87,0,0,1-.8-2c-.12-.25-.18-.49-.3-.74a10.16,10.16,0,0,1-.25-2.46,26.19,26.19,0,0,1,.06-3,.21.21,0,0,0,.06-.12,10,10,0,0,1,.31-3.26c.37-1.54.74-3.13,1.17-4.61a5.88,5.88,0,0,1,.18-1.1,3.47,3.47,0,0,1,.25-.93,3.17,3.17,0,0,1,.31-1,1.91,1.91,0,0,1,.12-.49,15.12,15.12,0,0,0,.55-2,29.07,29.07,0,0,1,1.42-3.93c.06-.31.3-.5.3-.8.25-1.23,3.81-9.41,6.39-14.38.13-.19-1.47,1.72-1.35,1.53.19-.37,2-2.76,2.21-3.13,1-1.6,1.42-2,2-2.15.43-.43,1.41-1.35,2-1.78a3.92,3.92,0,0,1,3.19-.86,1.6,1.6,0,0,0,.74.12,4.08,4.08,0,0,1,2.21,1.23c0,.18.25.3.43.55.19.8.8,1.6.56,2.7A3.81,3.81,0,0,1,893,479a27,27,0,0,1-3.19,5.84,1.49,1.49,0,0,1-.8.8c-.43.24-.86.37-1.35.67A5.88,5.88,0,0,1,888.22,484.53Zm-10.69,17.39c-.19.56-.37,1.17-.56,1.79a3.62,3.62,0,0,0-.18,1.16c-.12.62-.31,1.17-.37,1.72a13.12,13.12,0,0,1-.43,1.48c.12.43-.12.61-.18,1s-.19.49-.25.8a7.63,7.63,0,0,1-.31,1.6,9.34,9.34,0,0,1-.24,1.11,5.07,5.07,0,0,0-.31,1.35c0,.61-.06,1.23-.06,1.72a1.47,1.47,0,0,0,.12.49c.62,1.23,1-.37,1.17-.68.37-.86.12-.43.49-1.35.18-.74.43-1.6.68-2.33a15,15,0,0,0,.3-1.6c.25-1.48.43-3.14.62-4.73a34.14,34.14,0,0,0,.43-3.57c.18-3.68-.55-1.41-.74-.49Zm1.84-19.66a20.82,20.82,0,0,0-1.66,4.05v.37c.49-.86.8-1.84,1.17-2.64a7.43,7.43,0,0,0,.67-1.9A.86.86,0,0,0,879.37,482.26Zm2.77-4a20.37,20.37,0,0,1-1.48,2.34,1.34,1.34,0,0,1-.49.92.9.9,0,0,1,.06-.37,31,31,0,0,1,2.21-3.5c-.18-.25-.06-.25-.06-.25,1-1.35,2-2.45,2.77-3.32.12-.12.49-.24.49-.55a7.86,7.86,0,0,0,.55-.61,8,8,0,0,0-.92.73,2.35,2.35,0,0,0-.86.86,26.82,26.82,0,0,0-4.18,6.21,11.63,11.63,0,0,1-.55,1.6c-.19.43-.06.61-.19,1v.19a9.46,9.46,0,0,0,.74-1.72c.37-.68,1.72-2.77,2-3.32Z" transform="translate(-836.21 -465.83)"/><path class="cls-1" d="M903.65,484.53c.49-1.1,1-2.21,1.53-3.19a16.68,16.68,0,0,0,1.11-4.37c.12-1.23-.49-3.56-1.48-1.41-.24.74-.61,1.47-.86,2.21-.43,1.17-.86,2.4-1.35,3.69-.12.49-.37,1-.55,1.66a33.15,33.15,0,0,1-1.6,4.18,18.85,18.85,0,0,1-1.05,2.64c-.86,2-.36,1.17-1.16,3.26-.31.73-.74,1.9.18,2.15.74-.12,2.89.92,3.44.8.93,0,1.79.55,2.52.3.37-.12.68-.18.92-.24,1.66-.55,0,.18,1.54-.74.74,0,2.09-3,2.89-2.89,2.7-1.41.92,1.78-1.54,3.69-.24.18-.92.55-1.16.74-6.15,2.21-11.44-2.09-11.07.43.13,1.41.13,2.76.19,4a3.55,3.55,0,0,0,0,.8c-.06.74-.06,1.29-.06,2.09a3.59,3.59,0,0,0-.19,1.11,6,6,0,0,0-.31,1.41,3.15,3.15,0,0,0-.12,1.11,8.45,8.45,0,0,0-.31,1.35h-.06c.06-.12.06-.19.13-.25s-.13-.12-.13-.06-.12.12-.18.12a.4.4,0,0,0-.06.25,1.7,1.7,0,0,1-.19,1c-.12.49-.3,1.05-.37,1.48a9.59,9.59,0,0,1-1,2.4v.43a1.4,1.4,0,0,1-.49,1l-.18.37a28.22,28.22,0,0,1-1.3,2.7,1.11,1.11,0,0,1-.86.8,2.77,2.77,0,0,0-.73.06c-.13,0-.13.19-.31.13s-.37.06-.49.12a1.29,1.29,0,0,1-1.29-.31,6.4,6.4,0,0,1-.8-.74,2.87,2.87,0,0,1-.8-2c-.12-.25-.18-.49-.31-.74a10.7,10.7,0,0,1-.24-2.46,24.1,24.1,0,0,1,.06-3,.21.21,0,0,0,.06-.12,9.52,9.52,0,0,1,.31-3.26c.36-1.54.73-3.13,1.16-4.61a6.79,6.79,0,0,1,.19-1.1,3.49,3.49,0,0,1,.24-.93,3.43,3.43,0,0,1,.31-1,1.91,1.91,0,0,1,.12-.49,15.23,15.23,0,0,0,.56-2,28.79,28.79,0,0,1,1.41-3.93c.06-.31.31-.5.31-.8.24-1.23,3.81-9.41,6.39-14.38.12-.19-1.48,1.72-1.35,1.53.18-.37,2-2.76,2.21-3.13,1-1.6,1.41-2,2-2.15.43-.43,1.41-1.35,2-1.78a3.94,3.94,0,0,1,3.2-.86,1.58,1.58,0,0,0,.74.12,4.12,4.12,0,0,1,2.21,1.23c0,.18.24.3.43.55.18.8.8,1.6.55,2.7a3.76,3.76,0,0,1-.18,2.83,27,27,0,0,1-3.2,5.84,1.46,1.46,0,0,1-.8.8c-.43.24-.86.37-1.35.67A5.88,5.88,0,0,1,903.65,484.53ZM893,501.92c-.18.56-.37,1.17-.55,1.79a3.62,3.62,0,0,0-.19,1.16c-.12.62-.3,1.17-.36,1.72s-.25,1-.43,1.48c.12.43-.13.61-.19,1s-.18.49-.24.8a8.33,8.33,0,0,1-.31,1.6,7.82,7.82,0,0,1-.25,1.11,5.49,5.49,0,0,0-.31,1.35c0,.61-.06,1.23-.06,1.72a1.28,1.28,0,0,0,.13.49c.61,1.23,1-.37,1.16-.68.37-.86.13-.43.5-1.35.18-.74.43-1.6.67-2.33a12.9,12.9,0,0,0,.31-1.6c.25-1.48.43-3.14.61-4.73a31.66,31.66,0,0,0,.43-3.57c.19-3.68-.55-1.41-.73-.49C893.08,501.56,893,501.74,893,501.92Zm1.85-19.66a20.22,20.22,0,0,0-1.66,4.05v.37c.49-.86.8-1.84,1.16-2.64a7.43,7.43,0,0,0,.68-1.9A.86.86,0,0,0,894.8,482.26Zm2.76-4a19.1,19.1,0,0,1-1.47,2.34,1.35,1.35,0,0,1-.5.92.79.79,0,0,1,.07-.37,29.67,29.67,0,0,1,2.21-3.5c-.19-.25-.06-.25-.06-.25,1-1.35,2-2.45,2.76-3.32.13-.12.49-.24.49-.55a5.79,5.79,0,0,0,.56-.61,7.17,7.17,0,0,0-.92.73c-.31.25-.62.37-.86.86a26.82,26.82,0,0,0-4.18,6.21,11.49,11.49,0,0,1-.56,1.6c-.18.43-.06.61-.18,1v.19a10.22,10.22,0,0,0,.74-1.72c.37-.68,1.72-2.77,2-3.32Z" transform="translate(-836.21 -465.83)"/><path class="cls-1" d="M914.22,495.16a1.48,1.48,0,0,1-.62-.3,5.73,5.73,0,0,1-1.41-1.29c0-.07-.06-.07-.19-.13s-.12.06-.12.13a6.5,6.5,0,0,0-1,2.09.2.2,0,0,0-.07.18,1.65,1.65,0,0,0,.31,1.66,8.49,8.49,0,0,0,2,1.9,6.33,6.33,0,0,0,1,.74,1.94,1.94,0,0,0,1.72.37,8.43,8.43,0,0,0,3.45-1.17c.8-.55,1.59-1,2.39-1.53.62-.43,1.17-.93,1.72-1.36l2.83-2.45c0-.13.06-.25.06-.37a8,8,0,0,1,1.17-3.32,19.93,19.93,0,0,1,5-6.33,6.23,6.23,0,0,1,1.66-1.17,1.47,1.47,0,0,1,1.23-.12c.24.12.61.18.92.31a5,5,0,0,1,.74.49c.49.37,1,.73,1.47,1a1.15,1.15,0,0,1,.49.62.78.78,0,0,0,.37.49,5.54,5.54,0,0,1,.62.43,4.4,4.4,0,0,1,.92,1.23,3.09,3.09,0,0,1,.12,1,10.66,10.66,0,0,1-.74,3.08,3.64,3.64,0,0,1-.43.86l-.43.86-1.23,2.39a11.88,11.88,0,0,1-.86,1.11,3.69,3.69,0,0,1-1.78,1.29,1.47,1.47,0,0,1-1.23,0l-.61-.19a2.2,2.2,0,0,1-1.05-.36.83.83,0,0,0-.61-.31.26.26,0,0,0-.13.06,11.54,11.54,0,0,0-.24,1.41,3.71,3.71,0,0,0,1.17,3,2.4,2.4,0,0,0,2.09.61,14.91,14.91,0,0,0,1.72-.43,4.15,4.15,0,0,0,1.16-.61c1.66-1.11,3.32-2.22,4.92-3.39a6.36,6.36,0,0,0,1.48-1.41c.43-.49.92-1,1.35-1.53a11.44,11.44,0,0,0,1.66-2.52,4.46,4.46,0,0,0,.37-.86c.18,0,.12.12.12.18V492a10.66,10.66,0,0,0-.25,1.35,3.72,3.72,0,0,1-.37,1.11c-.3.49-.61,1-1,1.47a2.08,2.08,0,0,0-.43.8,4.82,4.82,0,0,1-1,1.6,1.34,1.34,0,0,0-.43.61c0,.06-.13.19-.19.25a12.92,12.92,0,0,1-1.78,1.29,10.81,10.81,0,0,0-1.17.74,5.28,5.28,0,0,1-1.84,1,14.71,14.71,0,0,0-2.15,1,10.55,10.55,0,0,1-4.74,1.48,8.81,8.81,0,0,1-2.51-.25,2.55,2.55,0,0,1-.56-.3,4.87,4.87,0,0,1-2-1.91,9.31,9.31,0,0,1-1.11-3.13,3.17,3.17,0,0,1-.12-.74.93.93,0,0,1-.07-.43,3.9,3.9,0,0,0,0-1.23c.07-.37,0-.74.07-1.17l-.37.37a2.28,2.28,0,0,0-.49.62,6.92,6.92,0,0,1-.93.86c-.36.3-.73.67-1.1.92-.49.43-1,.8-1.48,1.17a13.71,13.71,0,0,1-3,1.84,8.49,8.49,0,0,1-1.66.49c-.61.12-1.17.12-1.78.19a1.72,1.72,0,0,1-.55.06,4.43,4.43,0,0,1-1.54,0,10.71,10.71,0,0,1-4.24-1.72,9.86,9.86,0,0,1-3-4,6.35,6.35,0,0,1-.43-2.83,10.39,10.39,0,0,1,1.66-5,15.35,15.35,0,0,1,3.69-4.31,7.72,7.72,0,0,1,1.78-1.1c.3-.12.61-.12.92-.25a1.18,1.18,0,0,0,.49-.12,1,1,0,0,1,1,.06l1.23.92c.25.13.43.31.68.31a1.18,1.18,0,0,1,.61.37l.93.92.43.55c0,.19.18.31.3.37a5.42,5.42,0,0,1,1.42,2.83,4.55,4.55,0,0,1-.19,2,12.93,12.93,0,0,1-.8,2.21A3,3,0,0,1,918,495a.52.52,0,0,1-.25.12,7.67,7.67,0,0,0-1.11.31,3.38,3.38,0,0,1-1.1,0l-.06-.06c-.25-.31-.25-.31-.5,0ZM917.9,487a3.71,3.71,0,0,0-1.66.92l-.86.74a1.9,1.9,0,0,0-.49.49c-.43.49-.8,1-1.17,1.48l-1,1.47-.12.25c.12.06.18.12.24.12a7.14,7.14,0,0,0,2.52-.12,1.73,1.73,0,0,0,1-.8,11.07,11.07,0,0,0,1.72-3.87,1.37,1.37,0,0,0-.06-.68C918,487,918,486.93,917.9,487Zm15.8,8.48a1.14,1.14,0,0,0,1-.49,9.65,9.65,0,0,0,1.11-1.54c.3-.67.67-1.35,1-2.09l.37-.86.55-2.15.31-1.66v-.55c0-.18-.18-.25-.37-.12l-.12.12a3.69,3.69,0,0,0-1.05,1.66,8.65,8.65,0,0,1-1,2.21,19,19,0,0,1-1.41,2.21,19.72,19.72,0,0,0-1.42,2.59.66.66,0,0,0-.06.49A6.41,6.41,0,0,0,933.7,495.47Z" transform="translate(-836.21 -465.83)"/></svg>